<svg width="319" height="306" viewBox="0 0 319 306" fill="none" xmlns="http://www.w3.org/2000/svg">
<g clip-path="url(#clip0_892_1311)">
<path d="M286.432 268.67C264.676 261.662 216.156 238.223 199.664 230.144C198.388 229.532 197.335 228.981 196.474 228.584C194.942 227.819 194.049 227.39 194.049 227.39H128.431C128.431 227.39 127.57 227.819 126.006 228.584C125.145 229.012 124.061 229.532 122.816 230.144C120.392 231.338 117.298 232.837 113.693 234.581C92.671 244.74 54.6143 262.703 36.0485 268.67C9.63525 277.207 9.63525 320.475 9.63525 320.475H312.845C312.845 320.475 312.845 277.207 286.432 268.67V268.67Z" fill="#151515"/>
<path d="M189.933 197.43H132.13L128.397 227.357C128.397 233.232 143.103 238.005 161.223 238.005C179.342 238.005 194.048 233.232 194.048 227.357L189.964 197.43H189.933Z" fill="#CB9C8E"/>
<path d="M106.896 93.6343C106.896 93.6343 109.001 77.1715 123.547 74.1115C123.547 74.1115 225.851 74.1115 205.339 74.1115C205.339 74.1115 218.641 74.1115 221.417 92.4715C221.831 95.2255 226.074 123.469 225.819 134.577C225.659 141.707 228.562 137.943 228.562 137.943C228.562 137.943 231.688 126.56 232.199 111.627C233.156 83.1691 229.296 34.2397 166.74 34.2397C104.184 34.2397 98.4102 70.2559 98.4102 116.707L100.707 139.565C100.803 140.483 101.6 141.156 102.557 141.156C104.375 141.156 106.864 93.6343 106.864 93.6343H106.896Z" fill="#D28F7B"/>
<path d="M219.248 87.6974C220.464 87.6974 221.45 86.7521 221.45 85.586C221.45 84.4199 220.464 83.4746 219.248 83.4746C218.033 83.4746 217.047 84.4199 217.047 85.586C217.047 86.7521 218.033 87.6974 219.248 87.6974Z" fill="#FF9988"/>
<path d="M129.64 217.442C129.64 217.442 174.46 221.389 190.25 202.539V180.875L133.436 186.107L129.64 217.442V217.442Z" fill="#9F6E62"/>
<path fill-rule="evenodd" clip-rule="evenodd" d="M165.937 206.121C196.272 206.121 221.785 180.843 229.193 146.552C230.572 146.193 231.202 145.898 231.202 145.898C237.901 142.476 241.505 134.563 240.485 124.267C239.78 117.161 234.184 115.585 230.783 115.29C226.504 76.1151 199.102 45.9 165.937 45.9C132.087 45.9 104.241 77.3745 100.855 117.726C99.2491 117.698 89.695 117.933 89.3444 127.418C88.9616 137.776 93.0767 145.445 99.9671 148.47C99.9671 148.47 101.002 148.879 103.3 149.227C111.428 182.15 136.396 206.121 165.937 206.121Z" fill="#CB9C8E"/>
<path d="M194.78 132.312C196.912 132.312 198.64 129.435 198.64 125.886C198.64 122.337 196.912 119.46 194.78 119.46C192.648 119.46 190.92 122.337 190.92 125.886C190.92 129.435 192.648 132.312 194.78 132.312Z" fill="#498EA4"/>
<path d="M136.883 130.997C139.015 130.997 140.743 128.12 140.743 124.571C140.743 121.022 139.015 118.145 136.883 118.145C134.752 118.145 133.023 121.022 133.023 124.571C133.023 128.12 134.752 130.997 136.883 130.997Z" fill="#498EA4"/>
<path d="M168.4 154.773H162.307C159.596 154.773 157.203 153.763 155.927 152.111C155.002 150.917 154.747 149.51 155.194 148.133C156.565 143.849 158.447 132.221 158.479 132.098C158.607 131.272 159.436 130.721 160.298 130.813C161.159 130.935 161.765 131.731 161.637 132.557C161.574 133.047 159.692 144.552 158.256 149.02C158.128 149.448 158.192 149.877 158.511 150.305C159.181 151.193 160.68 151.743 162.339 151.743H168.432C169.325 151.743 170.027 152.417 170.027 153.273C170.027 154.13 169.325 154.803 168.432 154.803L168.4 154.773Z" fill="#A5503C"/>
<path d="M208.499 110.253C197.717 107.896 189.71 110.253 184.83 111.171C182.756 111.568 182.118 109.09 182.118 109.09C181.608 107.437 183.873 106.122 185.531 105.754C191.05 104.439 198.132 103.521 208.914 106.428C210.988 106.978 211.211 108.631 211.211 108.631C211.083 110.467 209.903 110.589 208.499 110.253V110.253Z" fill="#4B4040"/>
<path d="M122.497 109.821C133.375 107.862 141.286 110.555 146.135 111.626C148.208 112.085 148.91 109.668 148.91 109.668C149.484 108.046 147.283 106.638 145.656 106.179C140.201 104.68 133.151 103.487 122.242 105.965C120.136 106.455 119.849 108.077 119.849 108.077C119.881 109.913 121.061 110.066 122.497 109.821V109.821Z" fill="#4B4040"/>
<path d="M163.552 178.029C155.992 178.029 150.027 176.499 149.612 176.407C148.751 176.193 148.272 175.336 148.496 174.541C148.719 173.714 149.612 173.255 150.441 173.469C150.601 173.5 165.275 177.233 177.11 172.796C177.939 172.49 178.864 172.888 179.183 173.653C179.502 174.449 179.088 175.336 178.29 175.642C173.409 177.478 168.178 178.059 163.552 178.059V178.029Z" fill="#A5503C"/>
<path d="M210.956 39.4456C167.189 6.24462 128.399 41.0062 128.399 41.0062C90.023 47.7382 95.4779 102.084 96.403 107.898C97.3281 113.681 98.5084 117.69 98.5084 117.69C99.3378 117.72 100.103 117.69 100.837 117.537L104.091 139.936C104.314 140.732 105.558 140.793 105.845 139.936C106.133 139.63 107.026 126.533 107.887 112.855C115.16 102.543 114.841 78.3994 128.399 67.5976C135.034 62.3038 144.349 66.4654 144.349 66.4654C144.349 66.4654 151.303 54.6844 167.859 61.5388C182.756 67.6894 201.067 106.46 221.26 115.67C222.057 128.277 222.855 139.661 223.11 139.967C223.397 140.823 224.641 140.762 224.864 139.967L228.118 117.598L237.369 112.977C237.369 112.977 241.548 57.775 210.892 39.4762L210.956 39.4456Z" fill="#BEB779"/>
<path d="M286.43 268.671C274.946 264.968 255.997 256.676 238.229 248.505L188.656 265.366V310.868H185.466V266.437L175.194 269.925V320.446H312.843C312.843 320.446 312.843 277.178 286.43 268.64V268.671Z" fill="#E45B5B"/>
<path d="M214.495 230.726C198.8 225.555 175.194 269.925 175.194 269.925L185.466 266.436V310.868H188.656V265.365L238.229 248.505L238.42 248.444C238.42 248.444 230.222 235.898 214.527 230.726H214.495Z" fill="#A52B2B"/>
<path d="M137.84 266.647L130.471 309.64L127.313 309.15L134.777 265.606L84.3115 248.44C66.5113 256.641 47.4989 264.964 35.983 268.666C9.56983 277.204 9.56982 320.472 9.56982 320.472H146.836L147.537 269.952L137.84 266.647V266.647Z" fill="#E45B5B"/>
<path d="M108.238 230.725C92.5749 235.866 84.3766 248.382 84.3447 248.443L134.811 265.609L127.346 309.153L130.504 309.643L137.873 266.65L147.571 269.955C147.571 269.955 123.933 225.585 108.27 230.756L108.238 230.725Z" fill="#A52B2B"/>
</g>
<defs>
<clipPath id="clip0_892_1311">
<rect width="319" height="306" rx="153" fill="white"/>
</clipPath>
</defs>
</svg>
